<svg xmlns="http://www.w3.org/2000/svg" width="24" height="24" viewBox="0 0 24 24">
  <defs>
    <style>
      .cls-1 {
        fill-rule: evenodd;
      }
    </style>
  </defs>
  <path id="Form_1" data-name="Form 1" class="cls-1" d="M14.5,7h-6A0.5,0.5,0,0,1,8,6.5v-6A0.5,0.5,0,0,1,8.5,0h6a0.5,0.5,0,0,1,.5.5v6A0.5,0.5,0,0,1,14.5,7ZM9,6h5V1H9V6ZM6.5,7h-6A0.5,0.5,0,0,1,0,6.5v-6A0.5,0.5,0,0,1,.5,0h6A0.5,0.5,0,0,1,7,.5v6A0.5,0.5,0,0,1,6.5,7ZM1,6H6V1H1V6ZM22.5,7h-6A0.5,0.5,0,0,1,16,6.5v-6A0.5,0.5,0,0,1,16.5,0h6a0.5,0.5,0,0,1,.5.5v6A0.5,0.5,0,0,1,22.5,7ZM17,6h5V1H17V6Zm-2.5,9h-6A0.5,0.5,0,0,1,8,14.5v-6A0.5,0.5,0,0,1,8.5,8h6a0.5,0.5,0,0,1,.5.5v6A0.5,0.5,0,0,1,14.5,15ZM9,14h5V9H9v5ZM6.5,15h-6A0.5,0.5,0,0,1,0,14.5v-6A0.5,0.5,0,0,1,.5,8h6a0.5,0.5,0,0,1,.5.5v6A0.5,0.5,0,0,1,6.5,15ZM1,14H6V9H1v5Zm21.5,1h-6a0.5,0.5,0,0,1-.5-0.5v-6A0.5,0.5,0,0,1,16.5,8h6a0.5,0.5,0,0,1,.5.5v6A0.5,0.5,0,0,1,22.5,15ZM17,14h5V9H17v5Zm-2.5,9h-6A0.5,0.5,0,0,1,8,22.5v-6A0.5,0.5,0,0,1,8.5,16h6a0.5,0.5,0,0,1,.5.5v6A0.5,0.5,0,0,1,14.5,23ZM9,22h5V17H9v5ZM6.5,23h-6A0.5,0.5,0,0,1,0,22.5v-6A0.5,0.5,0,0,1,.5,16h6a0.5,0.5,0,0,1,.5.5v6A0.5,0.5,0,0,1,6.5,23ZM1,22H6V17H1v5Zm21.5,1h-6a0.5,0.5,0,0,1-.5-0.5v-6a0.5,0.5,0,0,1,.5-0.5h6a0.5,0.5,0,0,1,.5.5v6A0.5,0.5,0,0,1,22.5,23ZM17,22h5V17H17v5Z"/>
</svg>
